<svg xmlns="http://www.w3.org/2000/svg" viewBox="0 0 80 80"><defs><style>.cls-1{fill:#fff;}</style></defs><g id="Слой_2" data-name="Слой 2"><g id="Слой_1-2" data-name="Слой 1"><g id="Слой_2-2" data-name="Слой 2"><g id="Layer_1" data-name="Layer 1"><path class="cls-1" d="M40,13.33A13.34,13.34,0,1,0,53.33,26.68h0A13.33,13.33,0,0,0,40,13.33Zm0,20a6.67,6.67,0,1,1,6.67-6.67h0A6.67,6.67,0,0,1,40,33.33Z"/><path class="cls-1" d="M40,0A40,40,0,1,0,80,40,40,40,0,0,0,40,0ZM20,66.62V60a6.67,6.67,0,0,1,6.67-6.67H53.33A6.67,6.67,0,0,1,60,60v6.62A33.15,33.15,0,0,1,20,66.62Zm46.66-6.68A13.33,13.33,0,0,0,53.33,46.67H26.67A13.33,13.33,0,0,0,13.34,60h0a33.33,33.33,0,1,1,53.32,0Z"/></g></g></g></g></svg>